<svg version="1" xmlns="http://www.w3.org/2000/svg" width="1000" height="1000" viewBox="0 0 750.000000 750.000000"><path d="M613.2 57.8c-.7.2-1.2 1-1.2 1.8 0 3-5.4 12.5-9.2 16.3-5 4.9-14.1 9.3-23.8 11.6-6.3 1.5-11.8 1.7-34.5 1.6-14.8-.1-32.6-.4-39.5-.6-33-.9-51.2-1.6-58.5-2-4.4-.2-13.8-.7-21-1-7.1-.4-15.9-.8-19.5-1-40.5-2.3-92.6-3.8-133.5-3.9-41.2-.1-53.1 1.2-76.7 8.5-29.5 9.2-49.1 26.5-63.1 55.9-3.1 6.5-9.2 23.4-10.1 28-.1.8-.8 3.3-1.4 5.5-1.1 4.1-1.2 4.6-3 15-2.3 13-3.9 29.6-3.8 38.4l.1 5.5 10.5-.1c15.4-.1 15-.1 15-2.2 0-3.2 5-18.1 8.2-24.6 3.2-6.3 8.3-13.1 13.3-17.7 7.5-6.8 23.6-13 37.9-14.5 10.8-1.1 66.2-.4 99.6 1.2 3.6.2 8.1.4 10 .4l3.6.1-.1 193.2c0 106.3.3 196.9.7 201.3 2.9 34.1 15.3 60.8 38.1 82.1 22.1 20.6 51.3 33.8 82 37.1 12.3 1.3 33.3.7 45.2-1.2 49.4-8.3 77.8-28.3 93.2-65.4 6.6-16 14.3-41.7 16.7-56.2.3-1.9.7-4.3 1-5.4.2-1.1.7-4.7 1.1-8 .4-3.3.9-6.9 1-8 1.9-12.9 2.9-35.6 2.6-55.2l-.1-6.2h-31.8l-.1 13.2c-.2 17.8-.6 23.4-2.7 41.7-1.9 16.7-8.3 47-11.9 56.7-7.6 20-21.4 34.9-38.3 41.4-14.8 5.6-28.4 6.7-41.5 3.4-19.6-5-29.6-14.8-35.6-35.1-2-7-2.2-7.8-4-17.4-2.5-13.4-2.3 5.1-2.2-218.9l.1-190.4 7.3.7c3.9.4 9 .9 11.2 1.1 24 2.2 73.4 2.8 87.5 1 23.5-3 40.4-8.6 57-18.9 7.8-4.9 7.9-4.9 13.8-10.7 10.6-10.3 17.2-21.1 24-39.4 4.7-12.6 10.9-45.1 10.7-56.5v-2.5l-11.6-.1c-6.3 0-12.1.2-12.7.4z"/></svg>